<svg xmlns="http://www.w3.org/2000/svg" viewBox="0 0 400 200" fill="none">
  <path fill="#F38020" d="M285 130c-1-3-3-6-6-8s-6-2-9-2h-1l-64-2h-1c-1 0-1-1-1-1s0-1 1-1l64-2c8 0 16-6 19-14 4-11-1-23-11-27-2-1-4-1-6-1-3 0-6 1-9 3 0-1 0-2-1-3-4-15-19-24-34-20-8 3-15 9-18 17-6-4-13-6-20-3-13 4-20 17-16 30v1l-93 3h-1c-1 0-2 1-2 2l-2 8v1c0 1 1 2 2 2l99 3h1c1 0 1 1 1 1 0 1 0 1-1 1l-4 1h-1c-1 0-2 1-2 2l-2 8v1c0 1 1 2 2 2l83 3c1 0 2-1 2-2l1-2c1-4 0-8-2-11-2-2-5-3-8-3l-4-1c-1 0-1-1-1-1s0-1 1-1l4-1c11 0 21-9 24-20 1-2 1-4 1-6 3-2 6-4 10-4z"/>
  <text x="200" y="180" fill="#ffffff" font-family="system-ui, sans-serif" font-size="24" font-weight="600" text-anchor="middle">Cloudflare</text>
</svg>
