<svg xmlns="http://www.w3.org/2000/svg" viewBox="0 0 512 512">
  <defs>
    <!-- Glow filter -->
    <filter id="glow" x="-50%" y="-50%" width="200%" height="200%">
      <feGaussianBlur stdDeviation="8" result="coloredBlur"/>
      <feMerge>
        <feMergeNode in="coloredBlur"/>
        <feMergeNode in="SourceGraphic"/>
      </feMerge>
    </filter>
    
    <!-- Pulse animation -->
    <style>
      @keyframes pulse {
        0%, 100% { transform: scale(1); opacity: 1; }
        50% { transform: scale(1.05); opacity: 0.9; }
      }
      @keyframes glow-pulse {
        0%, 100% { filter: drop-shadow(0 0 5px #10B981); }
        50% { filter: drop-shadow(0 0 15px #10B981) drop-shadow(0 0 25px #10B98180); }
      }
      @keyframes rotate-subtle {
        0% { transform: rotate(0deg); }
        100% { transform: rotate(360deg); }
      }
      .m-logo {
        animation: pulse 2s ease-in-out infinite, glow-pulse 2s ease-in-out infinite;
        transform-origin: center center;
      }
      .outer-ring {
        animation: rotate-subtle 20s linear infinite;
        transform-origin: center center;
      }
    </style>
  </defs>
  
  <!-- Background -->
  <rect width="512" height="512" fill="#000000"/>
  
  <!-- Subtle outer ring (rotating) -->
  <g class="outer-ring">
    <circle cx="256" cy="256" r="240" fill="none" stroke="#10B98120" stroke-width="1"/>
    <circle cx="256" cy="256" r="220" fill="none" stroke="#10B98110" stroke-width="1"/>
  </g>
  
  <!-- Hexagonal M Logo (mirrored - opens to left) -->
  <g class="m-logo" transform="translate(256, 256)">
    <!-- Left hexagon (now on right due to mirror) -->
    <g transform="scale(-1, 1)">
      <!-- Right hexagon wireframe -->
      <path d="M 20 -80 L 100 -80 L 140 0 L 100 80 L 20 80 L -20 0 Z" 
            fill="none" stroke="#10B981" stroke-width="8" stroke-linejoin="round"/>
      <!-- Right hexagon inner -->
      <path d="M 30 -60 L 80 -60 L 110 0 L 80 60 L 30 60 L 0 0 Z" 
            fill="none" stroke="#10B981" stroke-width="6" stroke-linejoin="round"/>
      
      <!-- Left hexagon wireframe -->
      <path d="M -20 -80 L -100 -80 L -140 0 L -100 80 L -20 80 L 20 0 Z" 
            fill="none" stroke="#10B981" stroke-width="8" stroke-linejoin="round"/>
      <!-- Left hexagon inner -->
      <path d="M -30 -60 L -80 -60 L -110 0 L -80 60 L -30 60 L 0 0 Z" 
            fill="none" stroke="#10B981" stroke-width="6" stroke-linejoin="round"/>
      
      <!-- Center connection diamond -->
      <path d="M 0 -40 L 25 0 L 0 40 L -25 0 Z" 
            fill="none" stroke="#10B981" stroke-width="5" stroke-linejoin="round"/>
      
      <!-- Horizontal connectors -->
      <line x1="-80" y1="-60" x2="80" y2="-60" stroke="#10B981" stroke-width="4"/>
      <line x1="-80" y1="60" x2="80" y2="60" stroke="#10B981" stroke-width="4"/>
    </g>
  </g>
</svg>
