<svg xmlns="http://www.w3.org/2000/svg" viewBox="0 0 512 512">
  <defs>
    <style>
      @keyframes pulse {
        0%, 100% { opacity: 1; }
        50% { opacity: 0.85; }
      }
      @keyframes glow {
        0%, 100% { filter: drop-shadow(0 0 3px #10B981); }
        50% { filter: drop-shadow(0 0 8px #10B981) drop-shadow(0 0 15px #10B98160); }
      }
      .logo-group {
        animation: pulse 3s ease-in-out infinite, glow 3s ease-in-out infinite;
      }
    </style>
  </defs>
  
  <!-- Background -->
  <rect width="512" height="512" fill="#000000" rx="64"/>
  
  <!-- Hexagonal M Logo (mirrored) -->
  <g class="logo-group" transform="translate(256, 256) scale(-0.9, 0.9)">
    <!-- Right hexagon wireframe -->
    <path d="M 20 -100 L 120 -100 L 170 0 L 120 100 L 20 100 L -30 0 Z" 
          fill="none" stroke="#10B981" stroke-width="12" stroke-linejoin="round"/>
    <!-- Right hexagon inner -->
    <path d="M 35 -75 L 100 -75 L 135 0 L 100 75 L 35 75 L 0 0 Z" 
          fill="none" stroke="#10B981" stroke-width="8" stroke-linejoin="round"/>
    
    <!-- Left hexagon wireframe -->
    <path d="M -20 -100 L -120 -100 L -170 0 L -120 100 L -20 100 L 30 0 Z" 
          fill="none" stroke="#10B981" stroke-width="12" stroke-linejoin="round"/>
    <!-- Left hexagon inner -->
    <path d="M -35 -75 L -100 -75 L -135 0 L -100 75 L -35 75 L 0 0 Z" 
          fill="none" stroke="#10B981" stroke-width="8" stroke-linejoin="round"/>
    
    <!-- Center connection diamond -->
    <path d="M 0 -50 L 35 0 L 0 50 L -35 0 Z" 
          fill="none" stroke="#10B981" stroke-width="8" stroke-linejoin="round"/>
    
    <!-- Horizontal connectors -->
    <line x1="-100" y1="-75" x2="100" y2="-75" stroke="#10B981" stroke-width="6"/>
    <line x1="-100" y1="75" x2="100" y2="75" stroke="#10B981" stroke-width="6"/>
  </g>
</svg>
